<svg width="80" height="80" viewBox="0 0 80 80" fill="none" xmlns="http://www.w3.org/2000/svg">
<path d="M58.3333 6.66667C61.09 6.66667 63.3333 8.91 63.3333 11.6667V36.75C63.3333 41.98 65.0467 44.3733 68.0367 46.9167C71.4033 49.7767 73.3333 53.9367 73.3333 58.3333C73.3333 66.6033 66.6033 73.3333 58.3333 73.3333C50.0633 73.3333 43.3333 66.6033 43.3333 58.3333C43.3333 53.9367 45.2633 49.7767 48.6333 46.9167C51.62 44.38 53.3333 41.9867 53.3333 36.75V11.6667C53.3333 8.91 55.5767 6.66667 58.3333 6.66667ZM58.3333 0C51.89 0 46.6667 5.22333 46.6667 11.6667V36.75C46.6667 38.7067 45.8067 40.57 44.3167 41.8333C39.64 45.8067 36.6667 51.7167 36.6667 58.3333C36.6667 70.3 46.3633 80 58.3333 80C70.3033 80 80 70.3 80 58.3333C80 51.7167 77.0267 45.8067 72.35 41.8333C70.86 40.5667 70 38.7067 70 36.75V11.6667C70 5.22333 64.7767 0 58.3333 0ZM65.3567 49.06C61.9833 46.0933 60 43.28 60 38.3267V16.6667H56.6667V38.3267C56.6667 43.2733 54.6767 46.1 51.31 49.06C48.6633 51.3867 46.6667 54.5333 46.6667 58.3333C46.6667 64.7767 51.89 70 58.3333 70C64.7767 70 70 64.7767 70 58.3333C70 54.5333 68.0033 51.39 65.3567 49.06ZM21.6667 20C26.2633 20 30 23.74 30 28.3333C30 32.9267 26.2633 36.6667 21.6667 36.6667C17.07 36.6667 13.3333 32.9267 13.3333 28.3333C13.3333 23.74 17.07 20 21.6667 20ZM21.6667 16.6667C15.2233 16.6667 10 21.89 10 28.3333C10 34.7767 15.2233 40 21.6667 40C28.11 40 33.3333 34.7767 33.3333 28.3333C33.3333 21.89 28.11 16.6667 21.6667 16.6667ZM6.66667 28.3333C6.66667 27.7633 6.77333 27.2233 6.83667 26.6667H0V30H6.83667C6.77333 29.4433 6.66667 28.9033 6.66667 28.3333ZM12.35 16.6633L7.52333 11.8333L5.16667 14.19L9.99333 19.0167C10.6933 18.1467 11.4767 17.36 12.35 16.6633ZM33.34 19.0167L38.1633 14.19L35.8067 11.8333L30.98 16.66C31.8567 17.36 32.64 18.1433 33.34 19.0167ZM21.6667 13.3333C22.2367 13.3333 22.78 13.44 23.3333 13.5V6.66667H20V13.5C20.5533 13.44 21.0967 13.3333 21.6667 13.3333ZM21.6667 43.3333C21.0967 43.3333 20.5533 43.2267 20 43.1667V50H23.3333V43.1667C22.78 43.2267 22.2367 43.3333 21.6667 43.3333ZM36.4967 26.6667C36.56 27.2233 36.6667 27.7633 36.6667 28.3333L36.4967 30H43.3333V26.6667H36.4967ZM9.99333 37.6467L5.16667 42.4767L7.52333 44.8333L12.35 40.0067C11.4767 39.3067 10.6933 38.52 9.99333 37.6467ZM30.98 40.0067L35.8067 44.8333L38.1633 42.4767L33.34 37.65C32.64 38.5233 31.8567 39.3067 30.98 40.0067Z" fill="#007EE5"/>
</svg>
